<?xml version="1.0" encoding="UTF-8"?>
<!DOCTYPE svg PUBLIC "-//W3C//DTD SVG 1.1//EN" "http://www.w3.org/Graphics/SVG/1.1/DTD/svg11.dtd">
<!-- Creator: CorelDRAW -->
<svg xmlns="http://www.w3.org/2000/svg" xml:space="preserve" width="2.41516in" height="0.984252in" version="1.1" style="shape-rendering:geometricPrecision; text-rendering:geometricPrecision; image-rendering:optimizeQuality; fill-rule:evenodd; clip-rule:evenodd"
viewBox="0 0 2409.56 981.97"
 xmlns:xlink="http://www.w3.org/1999/xlink"
 xmlns:xodm="http://www.corel.com/coreldraw/odm/2003">
 <defs>
  <style type="text/css">
   <![CDATA[
    .fil2 {fill:#E1433B}
    .fil1 {fill:#B93B3F}
    .fil0 {fill:#2664AB}
    .fil3 {fill:#E1433B;fill-rule:nonzero}
   ]]>
  </style>
 </defs>
 <g id="Layer_x0020_1">
  <metadata id="CorelCorpID_0Corel-Layer"/>
  <g id="_2608288857536">
   <path class="fil0" d="M212.76 160.49c27.79,0 50.34,-22.57 50.34,-50.34 0,-27.79 -22.55,-48.6 -50.34,-48.6 -27.77,0 -48.6,20.81 -48.6,48.6 0,27.77 20.83,50.34 48.6,50.34zm-211.78 -159.7c0,0 53.82,170.09 128.45,171.84 74.65,1.76 272.52,33 267.32,161.45 -3.46,-13.9 -85.06,-98.97 -137.14,-81.59 0,0 65.96,263.82 55.55,340.21l-8.66 53.81 -15.63 -3.48c0,0 -27.78,-168.36 -48.6,-199.61 -20.84,-32.99 -112.84,284.67 -223.93,279.45 26.03,-10.4 140.6,-239.53 145.81,-277.71 3.47,-38.18 41.66,-163.18 -69.43,-220.46 -111.1,-57.29 -93.75,-223.92 -93.75,-223.92z"/>
   <path class="fil1" d="M484.21 248.98c0,0 31.24,5.21 27.78,22.56 -3.48,19.1 -15.63,17.37 -8.68,31.26 0,0 -15.61,0 -8.68,-24.33 1.74,-19.09 -12.16,-29.5 -10.42,-29.5zm-27.78 64.23c-20.82,0 -36.45,-17.37 -36.45,-36.45 0,-20.85 15.64,-36.46 36.45,-36.46 19.1,0 34.73,15.61 34.73,36.46 0,19.08 -15.63,36.45 -34.73,36.45zm152.75 -118.05c0,0 -38.19,124.97 -92,126.73 -55.52,0 -199.62,22.57 -194.41,118.04 0,-10.41 60.77,-72.92 98.96,-59.03 0,0 -48.6,190.94 -39.93,248.22l5.2 39.93 12.14 -3.49c0,0 20.83,-123.22 34.73,-145.79 15.62,-24.31 83.3,208.27 164.9,203.09 -19.09,-6.96 -104.15,-175.32 -107.62,-203.09 -1.74,-27.78 -31.25,-118.04 50.34,-159.72 81.59,-41.66 67.69,-164.9 67.69,-164.9z"/>
   <path class="fil2" d="M2304.26 617.95l41 -82c10.33,0 18.04,0 23.03,0.15 5.01,0.07 9.6,0.29 13.88,0.41l25.61 -21.92c-22.86,0 -45.05,-0.09 -66.43,-0.27 -21.34,-0.22 -42.28,-0.52 -62.74,-0.85l-27.47 23.04c2.12,0 5.06,-0.11 8.89,-0.11 21.63,-0.29 36.82,-0.44 45.53,-0.44l-41.55 83.17c-8.86,17.81 -17.84,35.44 -26.91,52.91 -9.07,17.57 -18.24,34.85 -27.41,51.88l44.39 -1.37c6.53,-14.47 13.92,-30.24 22.18,-47.46 8.2,-17.18 17.51,-36.19 27.99,-57.11zm-313.79 104.57c9.07,-16.78 17.99,-33.7 26.91,-50.93 8.96,-17.2 17.8,-34.67 26.74,-52.48 9.41,-18.98 18.44,-37.23 26.74,-54.59 8.3,-17.36 16.32,-34.43 23.91,-51.06 3.05,0.19 6.02,0.33 8.93,0.45 3.03,0.03 6.47,0.15 10.33,0.15 2.65,0 8.68,-0.11 17.83,-0.31 9.25,-0.2 17.11,-0.28 23.65,-0.28 35.79,0 59.04,8.15 69.96,24.49 10.9,16.39 8.65,39.73 -6.5,70.25 -9.79,19.58 -23.73,37.97 -41.82,55.23 -18.06,17.29 -38.54,31.58 -61.46,43.07 -13,6.49 -23.83,11.1 -32.63,13.57 -8.77,2.58 -17.72,3.81 -26.79,3.81 -6.44,0 -15.08,-0.16 -25.86,-0.68 -10.8,-0.53 -18.36,-0.7 -22.94,-0.7l-17 0zm54.37 -26.56c1.85,0.48 4.1,0.88 6.62,1.03 2.55,0.33 5.73,0.42 9.37,0.42 16.14,0 30.53,-1.17 43.21,-3.7 12.71,-2.52 23.76,-6.28 33.13,-11.46 7.15,-7.21 13.66,-14.97 19.64,-23.33 5.95,-8.26 11.1,-16.96 15.61,-25.96 13.23,-26.44 16.15,-48.67 8.76,-66.71 -7.26,-18.06 -22.46,-27.11 -45.52,-27.11 -2.45,0 -6.28,0.13 -11.72,0.54 -0.61,0 -1.22,0.02 -1.61,0.15 -9.99,19 -17.88,34.18 -23.78,45.61 -5.79,11.41 -11.25,22.29 -16.4,32.52 -10.53,21.19 -18.44,37.13 -23.53,47.88 -5.1,10.85 -9.66,20.84 -13.78,30.13zm-115.06 32.23c-2.71,-18.49 -5.48,-35.48 -8.27,-50.93 -2.77,-15.55 -5.85,-30.74 -9.18,-45.7 -6.27,12.6 -12.87,26.05 -19.69,40.43 -6.8,14.36 -14.73,31.29 -23.68,50.54l-42.21 1.37c9.46,-17.52 18.66,-35.07 27.85,-52.67 9,-17.5 17.86,-34.91 26.47,-52.12 9.21,-18.41 18.01,-36.39 26.44,-53.98 8.39,-17.56 16.52,-34.73 24.29,-51.66l12.99 0c9.14,0 19.9,-0.24 32.35,-0.75 12.44,-0.42 20.14,-0.66 23.3,-0.66 16.4,0 27.51,4.42 33.2,13.33 5.77,8.87 5.09,20.45 -2.06,34.8 -6.5,13.04 -16.53,24.62 -29.94,34.62 -13.5,9.97 -29.1,17.54 -47.02,22.66l10.94 58.38c0.57,3.09 1.56,8.44 3.09,15.79 1.55,7.36 2.71,13.22 3.59,17.63l-42.47 18.92zm-11.99 -107.66c6.5,-2.9 12.68,-5.96 18.47,-9.21 5.8,-3.2 11.09,-6.34 15.79,-9.42 0.88,0.75 1.88,1.32 2.77,1.96 0.94,0.49 1.94,0.84 2.89,1.18 7.15,-4.3 13.27,-9.23 18.59,-14.58 5.35,-5.46 9.45,-11.19 12.46,-17.24 5.81,-11.68 6.8,-21.16 2.93,-28.54 -3.92,-7.49 -11.92,-11.17 -23.92,-11.17 -1.23,0 -3.21,0.19 -6.03,0.67l-0.78 0 -43.18 86.34zm-291.57 103.99l26.93 -1.99 55.97 -67.63 66.68 0c-0.27,1.83 -0.55,4.59 -0.95,8.35 -2.7,26.45 -5.12,47.39 -7.16,62.9l40.72 -6.57 19.93 -210.25 -39.93 7.03 -1.3 21.37 -128.44 150.61c-3.06,3.7 -6.9,8.11 -11.56,13.24 -4.64,5.11 -11.63,12.79 -20.9,22.95zm102.77 -92.98l49.32 0 8.81 -69.04 -58.13 69.04zm-284.39 92.36c8.72,-16.08 17.59,-32.89 26.69,-50.35 8.99,-17.44 18.23,-35.57 27.59,-54.43 9.44,-18.71 18.23,-36.76 26.56,-54.11 8.32,-17.29 16.18,-34.09 23.67,-50.41l42.07 -1.12c-8.9,16.56 -17.31,32.3 -25.11,47.31 -7.93,15.09 -15.24,29.49 -22.05,43.09l79.45 0c6.06,-12.06 12.47,-25.3 19.26,-39.55 6.75,-14.27 14.58,-30.88 23.26,-49.72l42.14 -1.12c-8.92,16.56 -17.88,33.43 -26.86,50.68 -8.88,17.2 -18.04,35.18 -27.32,53.8 -9.31,18.77 -18.12,36.67 -26.36,53.85 -8.36,17.28 -16.26,34.1 -23.67,50.52l-42.37 1.57c10.15,-18.92 19.16,-35.98 27.03,-51.11 7.96,-15.35 15.34,-29.61 21.97,-42.94l-79.48 0c-6.3,12.59 -12.97,26.25 -19.99,41.03 -6.96,14.76 -15.09,31.9 -24.1,51.44l-42.38 1.57zm-178.09 0l42.3 -1.57c7.51,-16.22 14.87,-32.19 22.15,-47.29 7.27,-15.26 14.4,-29.89 21.47,-44.05l17.16 54.26c0.99,2.61 4.39,16.68 10.37,42.35 0.03,0.09 0.1,0.34 0.24,0.59l45.93 -16.31 -34.28 -101.27 123.48 -98.83 -31.82 2.81c-9.71,8.63 -22.34,19.45 -37.73,32.32l-1.08 0.84 -86.66 71.95c9.89,-19.79 19.33,-38.46 28.47,-56 9.05,-17.49 17.97,-34.27 26.57,-50.23l-42.1 1.12c-7.41,16.31 -15.28,33.12 -23.67,50.41 -8.3,17.35 -17.15,35.4 -26.46,54.11 -9.43,18.86 -18.63,36.99 -27.7,54.43 -9.07,17.46 -17.92,34.27 -26.66,50.35zm-5.14 -40l1.25 6.43c-15.28,8.66 -27.77,15.77 -37.53,21.15 -9.7,5.48 -16.54,9.06 -20.47,11.04 -3.78,1.91 -8.59,3.33 -14.14,4.23 -5.65,0.93 -12.17,1.44 -19.61,1.44 -28.06,0 -46.14,-9.29 -54.39,-27.69 -8.25,-18.41 -4.93,-42.56 9.94,-72.39 7.81,-15.57 17.04,-29.2 27.62,-40.95 10.66,-11.62 23.93,-22.84 39.98,-33.5 20.33,-13.61 40.2,-24.49 59.51,-32.38 19.27,-8.05 34.88,-11.96 46.55,-11.96 8.26,0 15.71,1.74 22.22,5.27 6.63,3.44 12.18,8.62 16.73,15.44l-45.2 26.88c-3.92,-5.07 -8.84,-8.73 -14.91,-11.21 -6.12,-2.42 -13.41,-3.55 -22.08,-3.55 -7.4,0 -15.08,1.14 -23.17,3.45 -8.06,2.32 -15.53,5.46 -22.37,9.56 -8.18,6.93 -15.63,14.73 -22.17,23.14 -6.62,8.53 -12.31,17.61 -17.17,27.24 -13.68,27.48 -17.02,49.62 -9.91,66.49 6.97,16.95 22.85,25.39 47.56,25.39 7.42,0 15.24,-1.1 23.56,-3.21 8.27,-2.17 17.71,-5.61 28.18,-10.3zm-352.66 -57.38c-14.39,28.94 -17.55,53.08 -9.27,72.47 8.24,19.39 25.28,29.2 51.29,29.2 6.98,0 13.66,-0.83 20.06,-2.53 6.24,-1.63 12.86,-4.21 19.67,-7.85 33.45,-17.86 59.71,-35.27 78.97,-52.45 19.27,-17.14 34.11,-36.38 44.67,-57.43 7.91,-15.94 12.16,-30.61 12.71,-44.14 0.52,-13.57 -2.68,-25 -9.58,-34.31 -4.64,-6.27 -10.99,-11.23 -19.09,-14.76 -8.23,-3.6 -17.16,-5.4 -26.98,-5.4 -4.78,0 -9.65,0.49 -14.43,1.54 -4.88,1.03 -10.68,2.88 -17.33,5.49 -31.09,12.47 -57.72,28 -79.79,46.61 -22.09,18.59 -39.02,39.74 -50.9,63.56zm79.14 67.62c8.62,0 16.32,-0.81 23.34,-2.4 6.98,-1.61 12.07,-3.69 15.27,-6.5 6.95,-5.82 14.53,-14.17 22.73,-25.03 8.07,-10.83 14.87,-21.76 20.41,-32.68 12.37,-24.88 14.76,-45.71 7.05,-62.5 -7.69,-16.7 -23.25,-25.06 -46.71,-25.06 -6.02,0 -11.32,0.55 -16.04,1.7 -4.76,1.06 -8.49,2.66 -11.26,4.53 -8.35,5.91 -16.88,14.46 -26.04,25.53 -9.08,11.05 -16.48,22.26 -22.05,33.57 -12.93,25.92 -16.31,47.14 -10.06,63.8 6.26,16.7 20.75,25.04 43.38,25.04zm-292.95 28.38l-27.49 1.37c7.41,-31.28 20.26,-99.63 38.34,-205.02 0.39,-1.94 0.62,-3.28 0.87,-4.29l39.38 -1.12 -33.74 168.52 63.5 -66.62c5.39,-30.83 10.44,-61.78 15.21,-92.89 0.6,-3.9 1.03,-6.6 1.21,-7.89l39.21 -1.12 -9.84 55.76 50.79 -53.24 24.93 -1.4 -80.8 83.95 -15.17 83.45 142.87 -166 23.77 -1.4 -181.19 207.93 -29.97 1.37c2.42,-10.01 4.95,-22.13 7.59,-36.04 2.65,-14.09 5.06,-29.02 7.32,-44.81l-76.81 79.48z"/>
   <path class="fil1" d="M1538.06 58.51c0,-15 12.16,-27.16 27.15,-27.16 15,0 27.15,12.16 27.15,27.16 0,15 -12.16,27.15 -27.15,27.15 -14.99,0 -27.15,-12.15 -27.15,-27.15z"/>
   <path class="fil0" d="M706.46 322.16l0 -172.66 -20.09 0 0 -28.49 20.09 0 0 -70.54c0,-15.61 3.85,-27.93 11.61,-36.96 7.7,-9.03 18.27,-13.5 31.64,-13.5 3.15,0 6.72,0.35 10.71,1.12 3.92,0.77 8.41,1.96 13.31,3.56l0 33.68c-2.73,-0.99 -5.26,-1.62 -7.57,-2.03 -2.38,-0.42 -4.47,-0.63 -6.37,-0.63 -5.59,0 -9.73,1.61 -12.25,4.82 -2.51,3.22 -3.78,8.4 -3.78,15.47l0 65.02 27.72 0 0 28.49 -27.72 0 0 172.66 -37.3 0zm115.9 -101.28c0,24.64 2.45,42.63 7.28,54.04 4.9,11.41 12.53,17.15 22.89,17.15 10.57,0 18.34,-5.74 23.3,-17.22 4.96,-11.48 7.49,-29.47 7.49,-53.97 0,-24.35 -2.53,-42.27 -7.49,-53.75 -4.97,-11.48 -12.73,-17.22 -23.3,-17.22 -10.36,0 -17.99,5.73 -22.89,17.14 -4.83,11.41 -7.28,29.33 -7.28,53.82zm-37.52 0.42c0,-33.94 5.81,-59.77 17.36,-77.48 11.54,-17.71 28.27,-26.53 50.32,-26.53 22.04,0 38.77,8.82 50.32,26.53 11.55,17.71 17.36,43.53 17.36,77.48 0,34.15 -5.81,60.12 -17.36,77.9 -11.55,17.78 -28.28,26.67 -50.32,26.67 -22.05,0 -38.78,-8.89 -50.32,-26.67 -11.55,-17.78 -17.36,-43.74 -17.36,-77.9zm170.57 41.57l0 -141.87 36.88 0 0 143.97c0,9.24 2.04,16.31 6.17,21.07 4.13,4.83 10.22,7.21 18.26,7.21 7.91,0 13.93,-2.38 18.06,-7.21 4.13,-4.76 6.15,-11.83 6.15,-21.07l0 -143.97 37.52 0 0 141.87c0,22.19 -4.9,38.22 -14.63,48.16 -9.8,9.87 -25.48,14.84 -47.1,14.84 -21.63,0 -37.23,-4.97 -46.83,-14.84 -9.65,-9.94 -14.48,-25.96 -14.48,-48.16zm168.4 59.28l0 -201.15 36.47 0 0 20.09c4.9,-7.35 10.92,-12.88 17.99,-16.59 7,-3.7 15.18,-5.52 24.49,-5.52 14.76,0 25.76,4.12 32.89,12.32 7.21,8.18 10.78,20.72 10.78,37.51l0 153.35 -37.09 0 0 -135.08c0,-13.65 -1.75,-22.95 -5.32,-27.92 -3.57,-4.9 -9.73,-7.35 -18.48,-7.35 -8.19,0 -14.41,2.59 -18.61,7.7 -4.13,5.11 -6.23,12.73 -6.23,22.81l0 139.84 -36.88 0zm169.59 0l0 -173.86 -20.1 0 0 -27.29 20.1 0 0 -54.52 36.88 0 0 54.52 27.72 0 0 27.29 -27.72 0 0 173.86 -36.88 0zm173.08 0l0 -19.67c-5.04,8.05 -10.84,14 -17.36,17.71 -6.44,3.77 -13.92,5.67 -22.47,5.67 -16.93,0 -29.74,-8.82 -38.49,-26.45 -8.74,-17.64 -13.16,-43.68 -13.16,-78.11 0,-34.23 4.34,-60.06 13.02,-77.62 8.68,-17.57 21.56,-26.39 38.63,-26.39 8.68,0 16.24,1.82 22.68,5.53 6.5,3.71 12.24,9.51 17.15,17.43l0 -19.25 36.88 0 0 201.15 -36.88 0zm-54.17 -100.85c0,25.69 2.17,43.81 6.43,54.31 4.34,10.57 11.41,15.82 21.28,15.82 9.87,0 16.94,-5.32 21.21,-15.89 4.34,-10.64 6.51,-28.7 6.51,-54.24 0,-25.75 -2.17,-43.74 -6.37,-54.1 -4.27,-10.29 -11.41,-15.47 -21.35,-15.47 -10,0 -17.15,5.17 -21.34,15.47 -4.27,10.35 -6.37,28.35 -6.37,54.1zm135.78 -100.3l36.89 0 0 201.15 -36.89 0 0 -201.15zm83.64 201.15l0 -201.15 36.47 0 0 20.09c4.9,-7.35 10.91,-12.88 17.99,-16.59 6.99,-3.7 15.18,-5.52 24.49,-5.52 14.76,0 25.76,4.12 32.9,12.32 7.2,8.18 10.78,20.72 10.78,37.51l0 153.35 -37.09 0 0 -135.08c0,-13.65 -1.75,-22.95 -5.32,-27.92 -3.57,-4.9 -9.73,-7.35 -18.48,-7.35 -8.19,0 -14.42,2.59 -18.62,7.7 -4.12,5.11 -6.23,12.73 -6.23,22.81l0 139.84 -36.88 0zm167.56 0l0 -317.82 36.88 0 0 136.83c4.27,-7.28 9.87,-12.81 16.94,-16.52 7,-3.77 15.4,-5.66 25.13,-5.66 14.77,0 25.76,4.12 32.9,12.32 7.21,8.18 10.78,20.72 10.78,37.51l0 153.35 -37.09 0 0 -135.08c0,-13.65 -1.76,-22.95 -5.32,-27.92 -3.57,-4.9 -9.73,-7.35 -18.48,-7.35 -8.19,0 -14.42,2.59 -18.62,7.7 -4.12,5.11 -6.23,12.73 -6.23,22.81l0 139.84 -36.88 0zm191.77 -122.62l56.34 0 0 -5.11c0,-16.59 -2.17,-28.49 -6.58,-35.9 -4.35,-7.35 -11.41,-11.06 -21.07,-11.06 -9.45,0 -16.59,4.4 -21.41,13.23 -4.83,8.82 -7.28,21.76 -7.28,38.85zm90.01 55.36l0 2.66c0,21.21 -5.33,37.86 -16.03,50.05 -10.63,12.17 -25.2,18.26 -43.67,18.26 -22.55,0 -39.05,-8.39 -49.49,-25.13 -10.43,-16.73 -15.67,-43.53 -15.67,-80.28 0,-34.57 5.24,-60.46 15.67,-77.54 10.44,-17.07 26.25,-25.62 47.46,-25.62 22.53,0 38.84,7.77 48.79,23.31 10,15.47 14.98,40.88 14.98,76.15l0 11.69 -92.04 0 0 5.95c0,21.06 2.38,36.33 7.14,45.84 4.83,9.52 12.38,14.28 22.75,14.28 8.33,0 14.7,-3.29 18.97,-9.87 4.34,-6.58 6.64,-16.37 7.06,-29.53l34.09 -0.21zm120.8 67.26l0 -19.67c-5.04,8.05 -10.84,14 -17.35,17.71 -6.45,3.77 -13.94,5.67 -22.46,5.67 -16.94,0 -29.75,-8.82 -38.51,-26.45 -8.74,-17.64 -13.15,-43.68 -13.15,-78.11 0,-34.23 4.34,-60.06 13.02,-77.62 8.68,-17.57 21.56,-26.39 38.64,-26.39 8.67,0 16.23,1.82 22.67,5.53 6.5,3.71 12.24,9.51 17.14,17.43l0 -19.25 36.89 0 0 201.15 -36.89 0zm-54.17 -100.85c0,25.69 2.17,43.81 6.44,54.31 4.34,10.57 11.41,15.82 21.27,15.82 9.87,0 16.94,-5.32 21.21,-15.89 4.34,-10.64 6.51,-28.7 6.51,-54.24 0,-25.75 -2.17,-43.74 -6.36,-54.1 -4.27,-10.29 -11.41,-15.47 -21.35,-15.47 -10.01,0 -17.15,5.17 -21.35,15.47 -4.27,10.35 -6.36,28.35 -6.36,54.1zm164.26 0.55c0,25.76 2.1,43.75 6.37,54.11 4.19,10.29 11.34,15.47 21.34,15.47 9.94,0 17.08,-5.18 21.35,-15.47 4.2,-10.36 6.37,-28.34 6.37,-54.11 0,-25.83 -2.17,-43.88 -6.37,-54.24 -4.27,-10.29 -11.41,-15.47 -21.35,-15.47 -10,0 -17.15,5.18 -21.34,15.47 -4.27,10.36 -6.37,28.41 -6.37,54.24zm54.17 100.3l0 -19.67c-5.04,8.05 -10.84,14 -17.35,17.71 -6.44,3.77 -13.93,5.67 -22.46,5.67 -17.71,0 -30.8,-8.47 -39.13,-25.33 -8.33,-16.87 -12.53,-43.12 -12.53,-78.68 0,-35.62 4.2,-61.94 12.53,-78.8 8.33,-16.87 21.42,-25.34 39.13,-25.34 8.68,0 16.23,1.82 22.68,5.54 6.5,3.7 12.25,9.52 17.14,17.42l0 -136.34 36.88 0 0 317.82 -36.88 0z"/>
   <polygon class="fil3" points="2409.56,430.26 686.38,430.26 686.38,415.85 2409.56,415.85 "/>
   <path class="fil3" d="M769.11 960.43c-18.79,4.05 -34.68,3.49 -47.1,-1.36 -6.81,-2.65 -12.39,-6.32 -16.6,-10.91 -4.25,-4.65 -7.52,-10.06 -9.69,-16.09 -2.2,-6.12 -3.31,-12.85 -3.31,-20 0,-16.25 4.8,-29.14 14.26,-38.34 9.63,-9.34 21.92,-13.89 37.59,-13.89 10.49,0 20.81,2.11 30.84,6.34 0.23,0.09 0.69,0.3 1.37,0.64 1.02,0.48 1.93,0.9 2.77,1.25 1.36,0.57 2.1,0.77 2.86,0.77l1.7 -0.39 0.87 -0.54c0.84,-0.53 1.63,-1.23 2.38,-2.11 0.98,-1.19 1.48,-2.56 1.48,-4.19l-0.58 -9.57c0,-1.45 -0.6,-4.15 -4.7,-5.79 -0.73,-0.29 -2.75,-0.8 -6.01,-1.46 -3,-0.61 -7.22,-1.22 -12.67,-1.86 -14.7,-1.7 -28.1,-1.06 -39.78,1.52 -7.44,1.67 -13.97,3.94 -19.4,6.78 -5.43,2.84 -10.42,6.26 -14.81,10.19 -4.43,3.94 -8.11,8.17 -10.95,12.57 -2.8,4.34 -5.17,9.01 -7.03,13.86 -1.87,4.84 -3.21,9.6 -4,14.13 -0.79,4.51 -1.18,9.07 -1.18,13.53 0,16.09 4.65,30.04 13.8,41.46 6.15,7.68 14.2,13.64 23.9,17.74 9.59,4.05 21.98,6.1 36.8,6.1 12.85,0 28.79,-1.86 47.34,-5.55l2.9 -0.57 0 -66.22 -23.04 0 0 51.96z"/>
   <polygon class="fil3" points="840.55,844.42 817.7,844.42 817.7,978.55 904.41,978.55 904.41,959.71 840.55,959.71 "/>
   <path class="fil3" d="M974.82 963.13c-8.87,0 -17.05,-2.51 -24.33,-7.45 -7.36,-4.99 -13.15,-11.7 -17.17,-19.93 -4.07,-8.28 -6.14,-17.34 -6.14,-26.91 0,-8.43 1.66,-16.3 4.94,-23.38 3.25,-7.01 7.73,-12.72 13.29,-16.97 4.53,-3.46 9.21,-5.78 13.88,-6.9 4.87,-1.16 10.24,-1.76 15.92,-1.76 5.64,0 10.92,1.1 15.71,3.3 4.81,2.2 8.91,5.12 12.18,8.68 3.39,3.7 6.34,7.95 8.74,12.66 2.42,4.72 4.24,9.6 5.38,14.52 1.14,4.92 1.71,9.78 1.71,14.43 0,6.08 -1.03,12.13 -3.04,18 -2,5.83 -4.87,11.23 -8.53,16.04 -3.57,4.67 -8.25,8.48 -13.89,11.34 -5.61,2.86 -11.88,4.3 -18.65,4.3zm51.3 -100.97c-5.67,-6.42 -12.91,-11.62 -21.52,-15.42 -16.99,-7.51 -38.67,-7.28 -55.6,-1.28 -8.42,2.97 -15.56,6.96 -21.2,11.82 -5.59,4.8 -10.42,10.39 -14.33,16.59 -3.93,6.19 -6.81,12.6 -8.6,19.05 -1.78,6.39 -2.67,12.84 -2.67,19.15 0,8.94 1.7,17.73 5.04,26.13 3.35,8.35 8.04,15.85 13.96,22.28 5.93,6.45 13.36,11.7 22.1,15.61 8.74,3.92 18.27,5.89 28.31,5.89 10.94,0 21.16,-2.02 30.38,-6.01 9.25,-4.01 16.99,-9.49 23,-16.27 5.97,-6.72 10.67,-14.45 13.98,-22.99 3.31,-8.55 4.98,-17.59 4.98,-26.87 0,-8.89 -1.58,-17.54 -4.69,-25.73 -3.11,-8.2 -7.53,-15.58 -13.13,-21.93z"/>
   <path class="fil3" d="M1122.31 894.69c-2.2,1.6 -7.25,3.51 -18.89,3.51l-13.22 0 0 -36.9c1.2,-0.05 2.67,-0.11 4.42,-0.19 7.84,-0.35 11.87,-0.32 14.45,-0.24 1.09,0.03 2.67,0.19 4.72,0.45 1.96,0.26 3.58,0.62 4.8,1.05 1.3,0.46 2.72,1.16 4.3,2.1 1.37,0.81 2.45,1.78 3.24,2.88 0.88,1.23 1.65,2.9 2.31,4.96 0.66,2.04 1,4.43 1,7.1 0,6.8 -2.34,11.79 -7.14,15.28zm17.89 43.19c0,3.59 -0.7,6.82 -2.07,9.6 -1.39,2.8 -3.1,5 -5.07,6.54 -2.11,1.66 -4.62,3.04 -7.45,4.11 -2.95,1.11 -5.74,1.87 -8.26,2.25 -2.62,0.39 -5.22,0.59 -7.77,0.59l-19.38 0 0 -45.49 13.22 0c8.4,0 15.17,0.6 20.13,1.8 4.56,1.1 8.19,2.97 10.77,5.54 3.95,3.98 5.88,8.9 5.88,15.06zm9.5 -30.99c-2.07,-1.48 -4.42,-2.73 -6.95,-3.71 -0.73,-0.28 -1.42,-0.53 -2.09,-0.76 1.65,-1.02 3.11,-2.16 4.38,-3.44 1.32,-1.39 2.72,-3.06 4.1,-5.02 1.5,-2.14 2.66,-4.71 3.43,-7.69 0.72,-2.81 1.08,-5.92 1.08,-9.2 0,-11.28 -4.35,-20.1 -12.98,-26.23 -3.17,-2.2 -7.14,-3.9 -11.82,-5.04 -4.56,-1.12 -8.27,-1.72 -11.34,-1.85 -2.89,-0.14 -6.73,-0.2 -11.56,-0.2 -3.28,0 -9.18,0.11 -17.65,0.33 -8.41,0.24 -14.18,0.35 -17.36,0.35l-3.6 0 0 134.13 30.59 0c6.38,0 11.5,-0.06 15.37,-0.2 4.01,-0.13 9.12,-0.78 15.17,-1.92 6.26,-1.16 11.49,-2.91 15.57,-5.2 4.82,-2.78 8.91,-6.34 12.15,-10.57 3.21,-4.19 5.44,-8.36 6.66,-12.41 1.17,-3.94 1.76,-7.95 1.76,-11.93 0,-6.1 -1.37,-11.8 -4.07,-16.98 -2.72,-5.17 -6.37,-9.37 -10.84,-12.46z"/>
   <path class="fil3" d="M1249.88 920.3l-36.6 0 19.4 -46.09 17.2 46.09zm-5.55 -75.88l-17.17 0 -62.22 134.13 24.1 0 17 -41.07 50.33 0 15.05 41.07 24.79 0 -50.97 -131.83 -0.91 -2.3z"/>
   <polygon class="fil3" points="1331.24,844.42 1308.39,844.42 1308.39,978.55 1395.09,978.55 1395.09,959.71 1331.24,959.71 "/>
   <path class="fil3" d="M1528.52 922.66c-1.3,-2.28 -3.18,-4.58 -5.62,-6.83 -2.27,-2.09 -4.29,-3.78 -6.08,-5.1 -1.86,-1.34 -4.32,-2.84 -7.35,-4.43 -3,-1.59 -5.36,-2.75 -7.08,-3.49l-7.04 -3.05c-3.53,-1.49 -6.22,-2.62 -8.04,-3.44 -1.78,-0.81 -3.91,-1.79 -6.35,-2.99 -2.25,-1.09 -3.93,-2.02 -5.04,-2.79 -1.11,-0.78 -2.34,-1.75 -3.66,-2.91 -1.32,-1.14 -1.92,-1.98 -2.15,-2.48 -0.49,-0.98 -0.92,-2.12 -1.28,-3.44 -0.34,-1.19 -0.51,-2.56 -0.51,-4.05 0,-2.87 0.55,-5.41 1.64,-7.58 1.09,-2.18 2.39,-3.87 3.87,-5.02 1.65,-1.28 3.53,-2.31 5.74,-3.13 2.3,-0.85 4.38,-1.42 6.18,-1.67 6.09,-0.87 12.02,-0.35 18.34,1.42 4.36,1.22 8.06,2.66 11.09,4.33 0.24,0.12 0.53,0.33 0.9,0.61l1.46 1.1c0.92,0.67 2.62,1.97 6.49,-0 1,-0.53 3.35,-1.76 3.35,-4.32l-1.8 -12.34c-0.33,-2.48 -1.89,-4.39 -5.13,-5.59l-3.65 -0.92c-1.09,-0.27 -2.47,-0.57 -4.17,-0.88 -1.65,-0.3 -3.31,-0.57 -4.98,-0.81 -1.69,-0.24 -3.63,-0.44 -5.8,-0.61 -17.84,-1.39 -32.63,2.38 -42.52,10.49 -8.88,7.3 -13.39,16.74 -13.39,28.06 0,2.27 0.14,4.4 0.44,6.32 0.29,2.09 0.87,4.13 1.73,6.09 0.76,1.71 1.48,3.26 2.21,4.63 0.86,1.63 2.12,3.26 4.08,5.12l3.19 3.06c1.2,1.17 2.87,2.36 5.09,3.65l4.77 2.77c1.28,0.73 3.23,1.67 5.83,2.82l5.67 2.49c1.34,0.59 3.42,1.48 6.26,2.67 2.29,0.95 4,1.68 5.68,2.45l4.25 1.98c1.86,0.87 3.27,1.63 4.21,2.28l3.94 2.77c1.26,0.9 2.21,1.75 2.77,2.49 0.75,1.01 1.52,2.15 2.31,3.4 0.63,1.03 1.08,2.16 1.35,3.37 0.29,1.28 0.45,2.75 0.45,4.33 0,2.57 -0.5,4.93 -1.51,7 -1.01,2.12 -2.33,3.87 -3.91,5.22 -1.73,1.47 -3.75,2.72 -6.01,3.7 -2.34,1.03 -4.74,1.79 -7.11,2.26 -8,1.54 -16.14,0.59 -24.2,-1.56 -5.66,-1.51 -10.5,-3.37 -14.4,-5.5l-0.86 -0.55c-0.73,-0.53 -1.5,-0.97 -2.28,-1.31 -2.06,-0.89 -3.44,-0.9 -5.89,0.31 -1.26,0.61 -1.97,1.06 -2.46,1.54 -1.14,1.12 -1.56,2.71 -1.24,4.73l1.91 11.43c0.97,4.49 6.47,5.76 8.23,6.16 4.07,1.01 9.18,1.92 15.19,2.72 6.05,0.8 11.46,1.2 16.08,1.2 8.49,0 16.2,-1.17 22.93,-3.48 6.85,-2.35 12.37,-5.56 16.4,-9.53 4,-3.93 7.07,-8.3 9.1,-12.97 2.04,-4.71 3.09,-9.65 3.09,-14.69 0,-3.32 -0.48,-6.56 -1.44,-9.66 -0.92,-2.97 -2.03,-5.59 -3.31,-7.81z"/>
   <path class="fil3" d="M1663.61 847.72c-0.75,-0.47 -2.02,-1.1 -5.79,-2.18 -2.72,-0.77 -6.78,-1.52 -12.42,-2.27 -5.54,-0.73 -11.49,-1.1 -17.66,-1.1 -14.7,0 -27.07,2.04 -36.77,6.03 -13.96,5.72 -25.14,14.65 -33.25,26.53 -8.09,11.9 -12.2,25.12 -12.2,39.29 0,8.42 1.55,16.68 4.59,24.53 3.05,7.86 7.49,15 13.16,21.21 4.19,4.62 8.86,8.47 13.81,11.47 5,3.02 10.15,5.2 15.31,6.48 5.03,1.25 9.46,2.08 13.15,2.48 3.69,0.41 7.8,0.61 12.22,0.61 6.31,0 12.68,-0.37 18.96,-1.1 6.31,-0.74 10.9,-1.42 14,-2.06 3.22,-0.67 5.32,-1.21 6.31,-1.56 3.6,-1.3 4.53,-3.9 4.77,-5.26l1.62 -9.07 0 -2.96 -1.06 -1.05c-0.17,-0.17 -0.73,-0.64 -1.7,-1.34 -1.28,-0.94 -2.25,-1.47 -3.48,-1.47 -0.97,0 -1.63,0.3 -3.8,1.34l-2.07 1.03c-3.99,1.78 -8.85,3.28 -14.45,4.46 -11.99,2.54 -24.41,2.62 -35.39,-1.69 -5.88,-2.3 -11.19,-5.62 -15.79,-9.86 -4.54,-4.18 -8.24,-9.66 -10.98,-16.32 -2.77,-6.72 -4.18,-14.26 -4.18,-22.39 0,-8.79 1.45,-16.68 4.32,-23.44 2.8,-6.65 6.63,-12.04 11.34,-15.98 4.84,-4.04 10.28,-7.12 16.18,-9.14 15.16,-5.2 33.43,-3.56 48.61,2.9 5.63,2.81 5.96,2.84 7.68,2.73l0.95 -0.22c1.1,-0.26 2.14,-0.84 3.22,-1.79 1.28,-1.16 2.03,-2.71 2.12,-4.28l1.07 -8.47c0.51,-2.63 -0.43,-4.92 -2.4,-6.07z"/>
   <polygon class="fil3" points="1777.36,899.08 1707.5,899.08 1707.5,844.42 1684.65,844.42 1684.65,978.55 1707.5,978.55 1707.5,917.82 1777.36,917.82 1777.36,978.55 1800.2,978.55 1800.2,844.42 1777.36,844.42 "/>
   <path class="fil3" d="M1896.24 963.13c-8.87,0 -17.05,-2.51 -24.33,-7.45 -7.36,-4.99 -13.15,-11.7 -17.18,-19.93 -4.07,-8.28 -6.14,-17.34 -6.14,-26.91 0,-8.43 1.66,-16.3 4.94,-23.38 3.25,-7.01 7.73,-12.72 13.29,-16.97 4.53,-3.46 9.21,-5.78 13.88,-6.9 4.87,-1.16 10.24,-1.76 15.92,-1.76 5.64,0 10.92,1.1 15.71,3.3 4.81,2.2 8.91,5.12 12.18,8.68 3.39,3.7 6.34,7.95 8.74,12.66 2.42,4.72 4.24,9.6 5.38,14.52 1.14,4.92 1.72,9.78 1.72,14.43 0,6.08 -1.03,12.13 -3.04,18 -2,5.83 -4.87,11.23 -8.53,16.04 -3.57,4.67 -8.25,8.48 -13.9,11.34 -5.61,2.86 -11.88,4.3 -18.65,4.3zm51.29 -100.97c-5.67,-6.42 -12.91,-11.62 -21.52,-15.42 -16.99,-7.51 -38.67,-7.28 -55.61,-1.28 -8.42,2.97 -15.55,6.96 -21.2,11.82 -5.59,4.8 -10.42,10.39 -14.33,16.59 -3.93,6.19 -6.81,12.6 -8.6,19.05 -1.78,6.39 -2.67,12.84 -2.67,19.15 0,8.94 1.7,17.73 5.04,26.13 3.35,8.35 8.04,15.85 13.97,22.28 5.92,6.45 13.35,11.7 22.1,15.61 8.74,3.92 18.27,5.89 28.3,5.89 10.94,0 21.16,-2.02 30.38,-6.01 9.25,-4.01 16.99,-9.49 23,-16.27 5.97,-6.72 10.67,-14.45 13.98,-22.99 3.31,-8.55 4.98,-17.59 4.98,-26.87 0,-8.89 -1.58,-17.54 -4.69,-25.73 -3.11,-8.2 -7.53,-15.58 -13.13,-21.93z"/>
   <path class="fil3" d="M2052.01 963.13c-8.87,0 -17.05,-2.51 -24.33,-7.45 -7.36,-4.99 -13.15,-11.7 -17.17,-19.93 -4.07,-8.28 -6.14,-17.34 -6.14,-26.91 0,-8.43 1.66,-16.3 4.94,-23.38 3.25,-7.01 7.73,-12.72 13.29,-16.97 4.53,-3.46 9.21,-5.78 13.88,-6.9 4.87,-1.16 10.24,-1.76 15.92,-1.76 5.65,0 10.92,1.1 15.71,3.3 4.81,2.2 8.91,5.12 12.18,8.68 3.39,3.7 6.34,7.95 8.74,12.66 2.42,4.72 4.24,9.6 5.38,14.52 1.14,4.92 1.72,9.78 1.72,14.43 0,6.08 -1.03,12.13 -3.04,18 -2,5.83 -4.87,11.23 -8.53,16.04 -3.57,4.67 -8.25,8.48 -13.9,11.34 -5.61,2.86 -11.88,4.3 -18.65,4.3zm51.3 -100.97c-5.67,-6.42 -12.91,-11.62 -21.52,-15.42 -16.99,-7.51 -38.67,-7.28 -55.61,-1.28 -8.42,2.97 -15.55,6.96 -21.2,11.82 -5.59,4.8 -10.42,10.39 -14.33,16.59 -3.93,6.19 -6.81,12.6 -8.6,19.05 -1.78,6.39 -2.67,12.84 -2.67,19.15 0,8.94 1.7,17.73 5.04,26.13 3.35,8.35 8.04,15.85 13.97,22.28 5.92,6.45 13.35,11.7 22.1,15.61 8.74,3.92 18.27,5.89 28.3,5.89 10.94,0 21.16,-2.02 30.38,-6.01 9.25,-4.01 16.99,-9.49 23,-16.27 5.97,-6.72 10.67,-14.45 13.98,-22.99 3.31,-8.55 4.98,-17.59 4.98,-26.87 0,-8.89 -1.58,-17.54 -4.69,-25.73 -3.11,-8.2 -7.53,-15.58 -13.13,-21.93z"/>
   <polygon class="fil3" points="2167.37,959.71 2167.37,844.42 2144.53,844.42 2144.53,978.55 2231.23,978.55 2231.23,959.71 "/>
  </g>
 </g>
</svg>
